<svg xmlns="http://www.w3.org/2000/svg" viewBox="0 0 334.689 586.257"><path d="M174.772 55.19a24.54 24.54 0 1 1-11.822-.016l-.004-19.178h-13.563V24.532h13.563v-14.4h11.84v14.4h13.562v11.464l-13.584-.004c0 1.607.01 18.555.008 19.198Z" fill="#ffcd00" stroke="#ea0029" stroke-width="1.5"/><path d="M192.583 72.76a25.179 25.179 0 0 1 .793 6.193 27.553 27.553 0 0 1-.67 5.654l-47.75.002a28.231 28.231 0 0 1-.666-5.656 24.75 24.75 0 0 1 .795-6.193h17.859V55.197a45.325 45.325 0 0 1 5.882-.706 45.356 45.356 0 0 1 5.94.72v17.55Z" fill="#ffd600" stroke="#ef373e" stroke-width="1.5"/><path d="M163.261 133.123a20.862 20.862 0 0 1 11.222-.048l1.969-30.889-.39.097a25.212 25.212 0 0 1-14.59-.06 3.178 3.178 0 0 0-.274-.076Zm60.888 1.964a18.861 18.861 0 0 1 11.354.332c5.623-37.905 16.449-43.223-59.051-33.158l-.512 8.054c57.863-7.25 52.07-5.132 48.209 24.772ZM52.48 140.739c-7.73-31.158-6.49-29.896 45.252-29.896-.152-4.228.509-7.304 2.571-9.414-66.136.954-70.636-.823-60.186 38.559 4.636-1.049 9.13-.776 12.363.751Z" fill="#ffcd00" stroke="#ea0029" stroke-width="1.5"/><path d="M239.44 110.842c52.78 0 53.355-.749 45.748 29.895 3.223-1.521 7.697-1.795 12.316-.757 9.399-36.228 10.461-38.549-60.459-38.549 2.116 2.114 2.667 5.205 2.395 9.411Z" fill="#ffcd00" stroke="#ea0029" stroke-width="1.5"/><path d="M287.678 205.36c2.295-14.108 12.342-54.798 15.559-63.419-14.037-6.597-31.203-.425-18.352 16.657l-1.42 1.423c-29.894-31.216-29.894 38.407 0 7.034.586.59 1.42 1.421 1.42 1.421-2.504 4.837-10.021 15.195-11.67 16.422a38.361 38.361 0 0 1-28.103 0c-3.492-2.77-9.705-14.692-10.7-18.775 0 0 .942-.938 1.11-1.109 27.684 27.684 27.684-35.79 0-8.105l-1.11-1.11c28.575-28.574-38.66-28.574-10.42 0-.415.415-1.103 1.11-1.103 1.11-27.685-27.686-27.685 35.789 0 8.105.168.171.842.84 1.104 1.109-.99 4.083-7.203 16.006-10.692 18.775-9.812 3.1-18.35 3.242-28.095 0-4.482-3.355-10.825-16.351-11.952-20.125l1.291-1.29c29.092 32.479 29.092-39.48 0-6.999l-1.29-1.289c33.083-30.505-41.692-30.505-8.604 0l-1.291 1.29c-29.098-32.481-29.098 39.477 0 6.997.326.322 1.027 1.025 1.29 1.291-1.127 3.774-7.469 16.77-11.951 20.125a37.663 37.663 0 0 1-26.849 0c-3.486-2.77-11.056-14.692-12.049-18.775.272-.269.942-.938 1.11-1.109 27.682 27.684 27.682-35.79 0-8.105 0 0-.693-.695-1.11-1.11 28.242-28.574-38.989-28.574-10.416 0-.418.415-1.11 1.11-1.11 1.11-27.685-27.686-27.685 35.789 0 8.105.169.171.839.84 1.11 1.109-.994 4.083-7.21 16.006-10.699 18.775-8.993 3.777-21.224 3.325-28.242 0-1.65-1.227-9.166-11.585-11.672-16.422 0 0 .834-.83 1.422-1.42 29.894 31.372 29.894-38.25 0-7.035l-1.422-1.423c12.857-17.082-4.31-23.254-18.348-16.657 3.212 8.621 13.263 49.31 15.558 63.421Z" fill="#ffcd00" stroke="#ea0029" stroke-width="1.5"/><path d="M113.03 134.919c-4.224-31.133-8.44-31.206 48.698-24.717-.154-3.336-.528-8.008-.528-8.008-72.951-9.429-66.276-6.526-59.66 33.528a18.6 18.6 0 0 1 11.49-.803Z" fill="#ffcd00" stroke="#ea0029" stroke-width="1.5"/><path d="M102.275 165.014c-27.685 27.684-27.685-35.79 0-8.105 0 0 .692-.695 1.11-1.11-10.695-10.696-7.965-17.387-1.845-20.077a2811.09 2811.09 0 0 0-1.532-8.806c-16.374 3.778-30.98 9.919-42.788 19.814-.006-.048-.02-.09-.026-.136.49 3.066-.715 7.08-4.422 12.004l1.422 1.423c29.894-31.216 29.894 38.407 0 7.034-.588.59-1.422 1.421-1.422 1.421 2.506 4.837 10.023 15.195 11.672 16.422 7.018 3.325 19.249 3.777 28.242 0 3.49-2.77 9.705-14.692 10.7-18.775-.272-.269-.942-.938-1.111-1.109Zm61.085-8.53 1.29-1.289c-13.437-12.389-9.085-19.747-1.389-22.072-.006-.009-.808-11.954-.808-11.954-17.735.14-34.971.94-50.884 3.505l.004.027c.205 1.49 1.324 9.254 1.458 10.218 7.65 1.918 12.63 8.878.77 20.88.417.415 1.11 1.11 1.11 1.11 27.682-27.686 27.682 35.789 0 8.105-.168.171-.838.84-1.11 1.109.993 4.083 8.563 16.006 12.05 18.775a37.663 37.663 0 0 0 26.848 0c4.482-3.355 10.824-16.351 11.952-20.125-.264-.266-.965-.969-1.291-1.29-29.098 32.479-29.098-39.48 0-6.999Zm59.53.425s.687-.695 1.103-1.11c-11.535-11.676-7.135-18.578.156-20.712.508-3.93 1.047-7.373 1.473-10.385-14.323-2.192-31.02-3.322-50.381-3.525l-.762 11.903c7.793 2.27 12.307 9.64-1.225 22.115l1.291 1.29c29.092-32.481 29.092 39.477 0 6.997l-1.29 1.291c1.126 3.774 7.47 16.77 11.95 20.125 9.747 3.242 18.284 3.1 28.096 0 3.489-2.77 9.702-14.692 10.692-18.775-.262-.269-.936-.938-1.104-1.109-27.685 27.684-27.685-35.79 0-8.105Zm60.575 10.146c-29.894 31.373-29.894-38.25 0-7.034l1.42-1.423c-3.613-4.806-4.855-8.748-4.457-11.784-10.068-9.41-24.277-15.935-43.492-20.054a287.678 287.678 0 0 0-1.433 8.658c6.634 2.46 10.037 9.254-1.09 20.38.414.416 1.109 1.11 1.109 1.11 27.684-27.685 27.684 35.79 0 8.106-.168.171-1.11 1.109-1.11 1.109.995 4.083 7.208 16.006 10.7 18.775a38.361 38.361 0 0 0 28.103 0c1.649-1.227 9.166-11.585 11.67-16.422 0 0-.834-.83-1.42-1.42Z" fill="#ea0029" stroke="#ea0029"/><path d="M9.125 205.545h319.412c-.364 156.66-16.912 275.032-159.661 372.05C25.396 480.576 9.45 362.59 9.125 205.544Z" fill="#ffcd00" stroke="#ea0029" stroke-width="1.5"/><path d="M56.145 425.281a9.898 9.898 0 0 1 1.708.806 5.255 5.255 0 0 0 1.407.634l1.6.302-.837 1.394a2.119 2.119 0 0 0 .343 2.447c.69.725 1.83.718 3.108.026l.562-.306 10.61 6.284c-2.56-2.332-10.71-9.762-11.78-10.735-2.985-1-5.16-1.278-6.72-.852Z" fill="none"/><path d="M53.181 297.545a2.862 2.862 0 0 0-2.235 1.057 1.931 1.931 0 0 1 .719-.14 1.968 1.968 0 1 1-.775 3.775 2.835 2.835 0 0 0 2.291 1.2 2.953 2.953 0 0 0 2.885-3.007 2.851 2.851 0 0 0-2.885-2.885Z" fill="#ffd600"/><path d="M274.191 430.894c1.265.683 2.416.694 3.103-.028a2.123 2.123 0 0 0 .345-2.448l-.839-1.395 1.599-.302a5.224 5.224 0 0 0 1.406-.634 10 10 0 0 1 1.711-.806c-1.561-.425-3.736-.147-6.72.852-1.068.971-9.226 8.406-11.784 10.736l10.617-6.286Z" fill="none"/><path d="m55.5 320.656-8.001-23.36-15.506.738c-5.868.307-10.78 1.69-14.596 4.112l-2.137 1.357 2.53.027c12.863.139 23.5 2.27 32.51 6.514l1.417 4.302c-5.466-1.18-26.606-5.739-27.795-5.987l-1.548-.323.73 1.403c2.28 4.38 13.457 6.907 25.291 9.583Z"/><path d="m31.152 308.226.205.124c5.616 2.408 15.821 4.15 17.81 4.475l1.168.19-.327-1.137a21.462 21.462 0 0 1-.2-.752c-.046-.176-.085-.33-.125-.467l-.156-.541-.564-.001c-6.313-.009-12.617-2.268-18.488-4.707l-1.978-.822 1.034 1.876a4.551 4.551 0 0 0 1.62 1.762Z" fill="#231f20"/><path d="m319.87 303.53 2.529-.027-2.135-1.357c-3.815-2.422-8.726-3.805-14.6-4.112l-15.555-.74-7.99 23.373 7.147-1.645c11.833-2.677 23.01-5.204 25.29-9.583l.732-1.403-1.55.323c-1.188.248-22.327 4.808-27.795 5.987l1.418-4.302c9.01-4.244 19.646-6.375 32.509-6.514Z"/><path d="m277.77 330.891 2.82-9.873 8.133-24.089-16.606.257-.022-1.392 17.279-.267c-.02-.525-.037-.94-.037-.978-.17-2.22-11.74-4.754-17.317-5.635l-.03-.004a15.446 15.446 0 0 0-2.547-.206c-8.463 0-18.823 6.575-20.758 16.364l-.194.982.996-.09a11.717 11.717 0 0 0 1.916-.477c.442-.135.895-.273 1.233-.345l-11.822 23.2-.534 1.051 2.01.063c-11.369 18.886-22.215 35.601-33.148 51.082-13.862 19.446-26.07 31.161-40.311 38.575-14.24-7.414-26.449-19.127-40.31-38.572-10.935-15.487-21.783-32.202-33.15-51.084l2.011-.064-12.38-24.257c.329.069.797.211 1.255.351a11.892 11.892 0 0 0 1.914.478l.998.089-.194-.982c-1.933-9.789-12.295-16.364-20.758-16.364a15.436 15.436 0 0 0-2.518.201l-.06.009c-5.575.88-17.143 3.416-17.317 5.668l-.035.95 17.422.262-.022 1.392-16.798-.253-.003-.007h-.004l8.188 24.091 2.822 9.875c6.133-4.68 14.21-4.956 22.242-.72l-.699 1.327c-4.488-2.366-13.179-5.406-20.963.829L60.21 332l.12.424c-6.707 6.533-9.968 13.842-9.968 22.34 0 8.74 3.477 18.63 10.662 30.279a94.501 94.501 0 0 0 30.708 27.598l.015-.034c26.449 11.703 51.181 15.235 73.508 10.5l.006.031c.77-.166 1.64-.345 2.547-.532l1.024-.212 1.023.212c.905.187 1.775.366 2.545.532l.007-.03c22.328 4.733 47.058 1.202 73.51-10.5l.014.032a94.564 94.564 0 0 0 30.739-27.644c7.153-11.603 10.63-21.492 10.63-30.233 0-8.5-3.262-15.81-9.967-22.34l.04-.143-.091.114c-7.784-6.232-16.474-3.195-20.963-.829l-.7-1.327c7.996-4.215 16.03-3.96 22.151.653Zm6.678-33.346a2.833 2.833 0 0 1 2.292 1.2 1.966 1.966 0 0 0-2.743 1.806 1.959 1.959 0 0 0 2.687 1.828 2.887 2.887 0 0 1-5.121-1.828 2.953 2.953 0 0 1 2.885-3.006ZM53.18 303.436a2.835 2.835 0 0 1-2.29-1.199 1.967 1.967 0 1 0 .774-3.775 1.931 1.931 0 0 0-.72.14 2.887 2.887 0 0 1 5.121 1.828 2.953 2.953 0 0 1-2.885 3.006Z"/><path d="M289.118 437.851c-.505-4.066-2.406-5.633-7.262-5.986l-.145-.01-.138.044-15.928 5.154 8.014-4.745c1.836.923 3.605.764 4.72-.406a3.682 3.682 0 0 0 .76-3.83 8.386 8.386 0 0 0 1.399-.676 4.806 4.806 0 0 1 3.15-.851l2.145.343-1.475-1.593c-1.937-2.091-5.05-2.28-10.192-.533l-.147.05-.115.104c-.104.093-7.948 7.242-11.238 10.24l3.529-7.236a4.037 4.037 0 0 0 4.205-1.32 2.508 2.508 0 0 0 .38-1.363 5.69 5.69 0 0 0-1.526-3.405 11.346 11.346 0 0 1 3.77-3.597l2.177-1.425-2.6.047a12.407 12.407 0 0 0-11.193 6.69l-4.05 14.787-24.628 5.644 2.843-6.194a19.646 19.646 0 0 1 3.36-4.587l1.314-1.51c3.225-3.632 3.66-7.5 3.66-10.806 0-1.47-.095-2.981-.187-4.439l-.072-1.227c-18.012 7.604-35.235 11.43-51.448 11.43a97.006 97.006 0 0 1-18.646-1.782 142.61 142.61 0 0 1-3.752 3.627l12.54 11.08a59.205 59.205 0 0 1 13.4-12.254 61.56 61.56 0 0 0 4.103 18.523l2.544 23.783c-4.246.312-11.718.863-11.845.877a7.288 7.288 0 0 0-5.521 2.716 6.653 6.653 0 0 0-1.727 3.752l-.217 2.273 1.523-1.701c1.146-1.279 3.06-2.073 4.105-1.697a2.722 2.722 0 0 0 1.714 2.254 4.073 4.073 0 0 0 3.97-.596 2.401 2.401 0 0 0 .839-2.158l9.995-1.384 9.058 11.35a4.259 4.259 0 0 0 .42 5.03 4.707 4.707 0 0 0 3.493 1.77 3.584 3.584 0 0 0 1.144-.187 4.244 4.244 0 0 1 .768 2.565 10.76 10.76 0 0 1-.304 2.23l-.28 1.294 1.255-.425a4.952 4.952 0 0 0 3.336-3.161 5.52 5.52 0 0 0 .257-1.694 10.371 10.371 0 0 0-2.947-6.574l-9.954-10.335 8.029 4.734a3.164 3.164 0 0 0 .806 3.966 3.843 3.843 0 0 0 2.553.993 4.114 4.114 0 0 0 2.835-1.213c1.365.085 1.973 1.37 2.741 3.327l.953 2.163.772-.996a5.121 5.121 0 0 0 1.132-3.194 6.667 6.667 0 0 0-.113-1.21 7.827 7.827 0 0 0-4.133-5.638l-14.89-6.483 8.387.088c.705 2.227 2.21 3.397 4.114 3.095a3.595 3.595 0 0 0 3.048-2.772c1.636.023 3.258 1.309 4.86 2.577l2.598 1.957-.256-1.795a10.022 10.022 0 0 0-9.426-8.474 6.4 6.4 0 0 0-.878.059l-15.608 1.98-1.199-21.045c6.034-4.872 8.676-13.437 11.695-23.363l2.606 30.027.092 1.054.964-.436a145.612 145.612 0 0 1 32.47-10.577c-1.074 3.047-3.778 10.718-3.828 10.863a5.463 5.463 0 0 0-.486 2.239 7.501 7.501 0 0 0 3.3 5.709l1.567 1.2-.551-2.852a7.736 7.736 0 0 1-.285-1.727 2.374 2.374 0 0 1 .474-1.469c2.499-.148 3.427-1.1 3.762-1.875a2.619 2.619 0 0 0 .212-1.064 5.412 5.412 0 0 0-1.28-3.153l2.159-9.62 14.829-3.734c1.807 1.191 3.397 1.572 4.665 1.144a4.822 4.822 0 0 0 2.759-3.207 8.103 8.103 0 0 1 5.007 1.448l1.407 1.042Zm-136.481 35.364a7.483 7.483 0 0 0-5.232-2.726 1.137 1.137 0 0 0-.197.009c-.215-.013-7.696-.564-11.938-.876l2.546-23.783a61.384 61.384 0 0 0 4.1-18.524 60.116 60.116 0 0 1 14.327 13.389c4.177-3.69 8.898-7.81 12.507-11.154a121.484 121.484 0 0 1-4.674-4.681 97.034 97.034 0 0 1-18.616 1.775c-16.214 0-33.436-3.825-51.449-11.43l-.074 1.263c-.095 1.532-.184 2.98-.184 4.404 0 3.305.435 7.173 3.637 10.777l1.348 1.552a19.604 19.604 0 0 1 3.352 4.578l2.84 6.19-24.628-5.644-3.996-14.649-.052-.138a12.41 12.41 0 0 0-11.194-6.69l-2.6-.047 2.175 1.425a11.361 11.361 0 0 1 3.77 3.596 5.697 5.697 0 0 0-1.526 3.406 2.509 2.509 0 0 0 .38 1.361 3.567 3.567 0 0 0 3.105 1.434 5.49 5.49 0 0 0 1.103-.113l3.53 7.24a40648.63 40648.63 0 0 0-11.239-10.242l-.115-.105-.147-.05c-5.141-1.747-8.255-1.56-10.194.533l-1.477 1.593 2.146-.343a4.792 4.792 0 0 1 3.149.85 8.552 8.552 0 0 0 1.403.679 3.676 3.676 0 0 0 .759 3.827c1.117 1.171 2.88 1.335 4.72.406l8.012 4.745-15.927-5.154-.138-.044-.145.011c-4.854.352-6.755 1.919-7.262 5.986l-.218 1.738 1.408-1.042a8.108 8.108 0 0 1 5.01-1.448 4.817 4.817 0 0 0 2.754 3.206c1.277.432 2.855.051 4.669-1.143l14.829 3.733 2.158 9.622a5.406 5.406 0 0 0-1.278 3.152 2.637 2.637 0 0 0 .209 1.06c.337.78 1.265 1.73 3.763 1.88a2.372 2.372 0 0 1 .476 1.468 8.041 8.041 0 0 1-.3 1.788l-.542 2.792 1.57-1.201a7.5 7.5 0 0 0 3.302-5.71 5.37 5.37 0 0 0-.467-2.192c-.066-.182-2.773-7.86-3.847-10.908a145.545 145.545 0 0 1 32.47 10.576l.964.436 2.698-31.078c3.017 9.919 5.659 18.484 11.693 23.36l-1.197 21.045-15.6-1.98a9.235 9.235 0 0 0-6.892 2.31 9.64 9.64 0 0 0-3.421 6.105l-.255 1.796 2.63-1.982c1.569-1.244 3.192-2.53 4.828-2.553a3.597 3.597 0 0 0 3.048 2.772c1.9.298 3.409-.866 4.114-3.095l8.386-.088-14.885 6.48a7.834 7.834 0 0 0-4.139 5.642 6.789 6.789 0 0 0-.112 1.21 5.13 5.13 0 0 0 1.133 3.194l.773.996.964-2.195c.756-1.925 1.363-3.21 2.728-3.296a4.112 4.112 0 0 0 2.835 1.213 3.849 3.849 0 0 0 2.554-.992 3.165 3.165 0 0 0 .807-3.967l8.026-4.733-9.976 10.358a10.35 10.35 0 0 0-2.922 6.55 5.51 5.51 0 0 0 .256 1.694 4.946 4.946 0 0 0 3.337 3.16l1.255.426-.282-1.295a10.696 10.696 0 0 1-.304-2.229 4.238 4.238 0 0 1 .769-2.565 3.564 3.564 0 0 0 1.143.186 4.713 4.713 0 0 0 3.494-1.77 4.257 4.257 0 0 0 .42-5.03l9.057-11.35 9.994 1.385a2.409 2.409 0 0 0 .843 2.16 4.076 4.076 0 0 0 3.97.593 2.727 2.727 0 0 0 1.714-2.254c1.032-.37 2.956.418 4.103 1.699l1.528 1.703-.222-2.277a6.664 6.664 0 0 0-1.728-3.751Zm19.583-18.285a114.344 114.344 0 0 0-3.449 6.948 142.85 142.85 0 0 1 2.09 4.832l.29.714.707-.311a20.324 20.324 0 0 0 4.972-3.004l.398-.404-.281-.493-4.727-8.283Z"/><path d="M193.918 451.8c-4.123-3.886-8.57-7.687-12.511-11.05a89.551 89.551 0 0 0-4.063 5.633c3.958 4.152 9.875 10.36 10.081 10.574l.29.301.41-.09c1.87-.406 5.023-2.925 5.922-4.44l.308-.516Zm-17.223-4.44a105.315 105.315 0 0 0-3.599 5.952l6.405 8.603.921-.362c.356-.135.711-.25 1.06-.361a5.83 5.83 0 0 0 3.413-2.084l.3-.442-.32-.428-8.18-10.878Zm-21.518-5.703a3999.917 3999.917 0 0 1-3.544 3.12c-3.694 3.25-6.612 5.817-7.89 7.023l-.437.413.307.516c.9 1.514 4.053 4.033 5.922 4.44l.41.09.29-.303 9.135-9.581a61.182 61.182 0 0 0-4.193-5.718Zm9.409 14.768-4.155 7.279.399.405a20.351 20.351 0 0 0 4.972 3.004l.705.31.292-.713c.4-.979.812-1.928 1.223-2.877a115.164 115.164 0 0 0-3.436-7.408Zm-4.485-7.915c-3.19 4.243-7.107 9.45-7.313 9.728l-.32.427.298.442a5.817 5.817 0 0 0 3.412 2.084c.349.112.704.227 1.054.36l.927.365.343-.46 5.12-6.876a94.202 94.202 0 0 0-3.52-6.07Z"/><path d="m288.131 310.118-.155.543c-.036.129-.072.27-.113.43-.056.218-.121.474-.211.784l-.332 1.141 1.173-.191c1.988-.324 12.19-2.065 17.811-4.475l.155-.066.05-.058a4.523 4.523 0 0 0 1.621-1.761l1.035-1.878-1.98.823c-5.871 2.44-12.175 4.698-18.488 4.707Z" fill="#231f20"/><path d="M283.997 300.551a1.966 1.966 0 0 1 2.743-1.806 2.833 2.833 0 0 0-2.292-1.2 2.953 2.953 0 0 0-2.885 3.006 2.887 2.887 0 0 0 5.121 1.828 1.959 1.959 0 0 1-2.687-1.828Z" fill="#ffd600"/><path d="M168.782 462.015a102.437 102.437 0 0 1 12.625-21.264l-12.773-11.188c-3.656 3.393-8.15 7.394-12.391 11.14 2.098 2.47 7.299 9.276 12.539 21.312Z" fill="#231f20"/><path d="M164.042 262.498a4.087 4.087 0 0 1-.062-.507c-.008-.096-.017-.212-.032-.358a45.145 45.145 0 0 0 5.084-13.362 45.651 45.651 0 0 0 5.057 13.345l-.036.427a5.466 5.466 0 0 1-.05.473 16.548 16.548 0 0 0-4.915-.758h-.148a16.28 16.28 0 0 0-4.898.74Zm-15.107 18.082a3.778 3.778 0 0 1-.487-.094 9.444 9.444 0 0 0-.364-.083 45.132 45.132 0 0 0-11.125-8.958 46.31 46.31 0 0 0 14.24-.694c.164.071.287.122.398.168.176.072.257.105.434.193a16.56 16.56 0 0 0-2.243 4.443l-.044.137a16.268 16.268 0 0 0-.809 4.888Zm35.575 14.305a3.486 3.486 0 0 1 .316.338c.068.08.153.18.27.307a45.083 45.083 0 0 0 3.739 13.799 45.7 45.7 0 0 0-11.936-7.824 21.718 21.718 0 0 0-.225-.37 5.937 5.937 0 0 1-.233-.41 16.564 16.564 0 0 0 4.42-2.273l.122-.088a16.312 16.312 0 0 0 3.526-3.479Zm3.681-19.221-.046-.142a16.308 16.308 0 0 0-2.218-4.43 4.005 4.005 0 0 1 .453-.211c.091-.039.202-.084.34-.147a45.626 45.626 0 0 0 14.283.706 45.677 45.677 0 0 0-11.131 8.936c-.186.042-.317.073-.424.1a5.794 5.794 0 0 1-.461.095 16.501 16.501 0 0 0-.796-4.907Z" fill="#ef373e"/><path d="M170.525 340.55c.169-1.542.328-2.999.581-4.146l.08-.363-.24-.284a9.977 9.977 0 0 1-1.368-2.246l-.686-1.59-.69 1.588a10.192 10.192 0 0 1-1.371 2.249l-.251.295.096.376a31.803 31.803 0 0 1 .627 4.496 37.962 37.962 0 0 0 .826 5.66l.722 2.802.73-2.8a43.395 43.395 0 0 0 .944-6.037Zm-5.127-3.148-.926.713c-.01.009-.358.274-.829.57l-.197.182c-.417.55-1.597 2.137-1.597 2.137l-.28.378.9 1.721 3.428-3.538Zm8.912 1.465-.198-.18c-.47-.299-.82-.565-.831-.573l-.925-.709-.498 2.16 3.428 3.538.9-1.721-.281-.378s-1.179-1.586-1.596-2.137Zm-7.603 5.835.3-.292-.091-.41a42.357 42.357 0 0 1-.257-1.455l-.235-1.45-3.235 3.243 1.29 2.6.738-.747s1.088-1.1 1.49-1.49Zm4.385-2.157c0 .002-.177 1.1-.256 1.455l-.092.408.3.293c.399.39 1.49 1.49 1.49 1.491l.739.745 1.289-2.6-3.235-3.242Zm-2.637 7.171a159.47 159.47 0 0 1-.77-2.534l-.344-1.151-2.253 2.074.253.505c.045.09 1.11 2.212 1.748 3.37l1.331 2.413.076-2.755c.022-.808.026-1.18 0-1.713Zm1.612-2.534c0 .001-.647 2.178-.77 2.534l-.042.209a19.59 19.59 0 0 0 0 1.715l.082 2.742 1.325-2.402c.637-1.158 1.702-3.28 1.748-3.37l.253-.505-2.253-2.074Zm-50.327-48.616 1.302-1.14-1.722-.17a10.269 10.269 0 0 1-2.563-.61l-.359-.147-.327.208a31.93 31.93 0 0 1-4.08 1.984 37.924 37.924 0 0 0-5.132 2.537l-2.438 1.552 2.885-.17a43.233 43.233 0 0 0 6.037-.97c1.518-.316 2.952-.615 4.121-.73l.37-.035.195-.317a9.896 9.896 0 0 1 1.712-1.992Zm-4.988-2.772-.964-.661c-.012-.01-.373-.257-.8-.613l-.236-.134c-.654-.224-2.524-.854-2.524-.854l-.444-.15-1.366 1.383 4.43 2.17Zm-2.367 11.159 1.912.332.274-.386s1.143-1.612 1.539-2.179l.111-.245c.137-.537.283-.95.288-.964l.394-1.102-2.215.195Zm-4.173-7.661.369.194.36-.212a43.917 43.917 0 0 1 1.308-.692l1.307-.67-4.084-2.077-2.075 2.029.938.472s1.384.697 1.877.956Zm3.406 3.504c-.002 0-1.1.171-1.463.206l-.418.039-.185.376c-.247.5-.956 1.876-.957 1.877l-.481.933 2.872.422 2.082-4.078Zm-7.821-.188.188-.104a150.36 150.36 0 0 1 2.17-1.515l.988-.682-2.668-1.503-.402.398c-.071.07-1.761 1.74-2.663 2.704l-1.876 2.006 2.635-.775a20.08 20.08 0 0 0 1.628-.529Zm.448.694-.11-.002-.105.03c-.515.14-.866.258-1.627.53l-2.591.923 2.701.518c1.296.25 3.645.607 3.743.623l.56.084 1.274-2.785-1.2.03s-2.044.052-2.645.05Zm30.961-63.531.36.088a10.09 10.09 0 0 1 2.428 1.014l1.493.88-.38-1.69a9.955 9.955 0 0 1-.212-2.62l.03-.389-.3-.248a31.709 31.709 0 0 1-3.149-3.266 37.895 37.895 0 0 0-3.998-4.096l-2.23-1.84 1.054 2.692a43.292 43.292 0 0 0 2.792 5.45c.769 1.344 1.493 2.612 1.963 3.685Zm4.209-5.621c.004-.015.13-.434.336-.95l.054-.267c.012-.69.033-2.665.033-2.665l.005-.47-1.738-.865-.693 4.877 1.67 1.458Zm-10.948 4.379s1.886.592 2.548.792l.131.04.136-.01c.35-.022.654-.027.838-.027l1.34.031-.873-2.04-4.85-.846.281 1.92Zm6.578-6.679 1.042 1.033.708-4.524-2.57-1.346-.159 1.037s-.235 1.533-.33 2.084l-.067.41.31.276a46.575 46.575 0 0 1 1.066 1.03Zm-4.239 1.273-.167-.381-.412-.06c-.55-.08-2.08-.33-2.08-.33l-1.037-.17.487 2.86 4.52.723-.66-1.31a45.927 45.927 0 0 1-.65-1.332Zm-1.588-6.166.16.148c.308.214 2.109 1.593 2.11 1.593l.953.73.605-3-.501-.26c-.09-.045-2.2-1.138-3.397-1.699l-2.491-1.165 1.555 2.269c.456.665.674.967 1.006 1.384Zm-2.391 3.365.092.558 3.043.352-.4-1.133s-.757-2.141-.865-2.5l-.092-.197a19.646 19.646 0 0 0-1.008-1.386l-1.677-2.171.34 2.723c.164 1.312.55 3.654.567 3.754Zm72.154 6.502-.277.246.027.37a10.035 10.035 0 0 1-.214 2.622l-.38 1.692 1.492-.881a10.127 10.127 0 0 1 2.43-1.014l.377-.092.143-.36a32.016 32.016 0 0 1 2.133-4.003 37.874 37.874 0 0 0 2.662-5.068l1.063-2.69-2.236 1.834a43.275 43.275 0 0 0-4.316 4.333c-1.042 1.148-2.026 2.232-2.904 3.011Zm5.208 2.546 1.349-.033c.182 0 .48.004.822.026l.137.009.13-.04c.66-.201 2.546-.791 2.546-.791l.45-.14.28-1.922-4.853.849Zm-6.352-6.423.053.264c.206.514.33.933.334.948l.328 1.122 1.678-1.457-.693-4.877-1.739.862.005.47s.02 1.978.034 2.668Zm12.699-.751-1.037.17s-1.53.25-2.083.331l-.414.06-.166.384a40.513 40.513 0 0 1-.648 1.328l-.661 1.31 4.521-.72Zm-7.935-.331c.001-.002.794-.79 1.067-1.031l.31-.276-.07-.409c-.093-.55-.328-2.083-.328-2.084l-.16-1.036-2.572 1.344.712 4.524Zm8.218-1.528c.017-.099.402-2.443.566-3.753l.34-2.72-1.677 2.167c-.506.654-.723.952-1.008 1.388l-.091.195c-.109.36-.862 2.499-.862 2.5l-.399 1.13 3.038-.349Zm-4.662-1.623s1.805-1.38 2.114-1.596l.156-.147c.334-.416.55-.717 1.007-1.384l1.552-2.269-2.49 1.166c-1.197.56-3.306 1.653-3.395 1.7l-.502.26.605 3Zm24.117 73.956 2.719.176-2.245-1.543a35.186 35.186 0 0 0-5.744-2.926 37.584 37.584 0 0 1-3.62-1.723l-.317-.186-.34.138a10.146 10.146 0 0 1-2.589.598l-1.753.154 1.326 1.158a10.226 10.226 0 0 1 1.742 2.008l.204.325.383.026a32.635 32.635 0 0 1 4.523.81 38.817 38.817 0 0 0 5.711.986Zm-9.678-.273.4 1.109c.006.012.154.426.295.966l.113.245a607.87 607.87 0 0 0 1.563 2.185l.272.377 1.93-.313-2.35-4.368Zm6.718-8.867s-1.892.625-2.552.85l-.233.13c-.433.355-.797.602-.808.61l-.975.661 1.916 1.145 4.463-2.15-1.368-1.393Zm.698 9.9-.184-.369-.41-.042c-.367-.037-1.482-.213-1.485-.213l-1.465-.23 2.121 4.089 2.894-.412-.494-.942s-.724-1.38-.977-1.882Zm-.71-4.839c.002.001 1.01.515 1.328.702l.358.208.366-.19a155.28 155.28 0 0 1 1.893-.949l.952-.47-2.097-2.036-4.122 2.06Zm6.306 4.778-.268-.026c-.532 0-2.618-.06-2.619-.06l-1.213-.034 1.296 2.789.553-.081c.1-.015 2.476-.364 3.787-.609l2.735-.51-2.62-.933c-.772-.274-1.13-.394-1.651-.536Zm-2.151-2.349s1.895 1.296 2.198 1.525l.19.104c.506.19.864.306 1.648.535l2.664.782-1.908-2.017c-.918-.969-2.634-2.646-2.707-2.716l-.4-.39-2.69 1.492Zm-47.463-31.036a4.35 4.35 0 0 1 .891-.476c.157-.065.368-.152.711-.304a41.972 41.972 0 0 0 8.953.872 50.697 50.697 0 0 0 16.913-2.818c-.813-2.457-.075-5.822.642-9.076.861-3.917 1.674-7.617-.049-9.76-1.197-1.488-3.51-2.06-7.093-1.761a12.124 12.124 0 0 1 3.896-.694c6.352 0 6.658 6.164 6.955 12.124.147 2.966.299 6.035 1.219 8.225.547 2.321 2.226 4.892 3.851 7.378 2.436 3.73 4.955 7.585 3.9 10.835-.652 2.013-2.587 3.61-5.917 4.88l-.043-.089c2.988-1.81 4.523-3.588 4.691-5.437.256-2.806-2.63-5.369-5.687-8.083-2.49-2.21-5.067-4.499-5.914-6.996-9.319 2.746-17.94 8.99-21.98 13.645-.397.096-.618.148-.782.187a5.574 5.574 0 0 1-.965.16 19.134 19.134 0 0 1-.581 3.962c15.95-3.035 21.54 12.466 33.317 7.808 7.704-3.242 11.422-16.574 6.35-31.478-4.656-15.038-15.502-23.64-23.639-21.735-12.254 3.153-7.69 18.951-22.325 25.882a19.365 19.365 0 0 1 2.686 2.75Zm-21.947-7.046c-.013-.167-.03-.394-.068-.768 3.184-5.313 6.459-15.442 6.143-25.202h-.034c-2.58.001-5.539-1.735-8.402-3.414-2.83-1.66-5.506-3.23-7.81-3.23-2.618 0-4.319 2.054-5.354 6.462.186-5.62 2.313-8.23 6.598-8.23a31.51 31.51 0 0 1 7.627 1.442c2.867.776 5.832 1.582 8.2 1.383.259.02.513.03.774.03a30.963 30.963 0 0 0 7.434-1.414 31.524 31.524 0 0 1 7.627-1.442c4.271 0 6.398 2.598 6.691 8.171a.221.221 0 0 0 .004.036l-.002-.003.002.012c-1.133-4.394-2.834-6.447-5.453-6.447-2.305 0-4.979 1.57-7.81 3.23-2.874 1.686-5.846 3.43-8.483 3.463-.268 9.711 3.008 19.841 6.186 25.121-.034.408-.051.635-.063.803a5.984 5.984 0 0 1-.165 1.042 19.167 19.167 0 0 1 3.564 1.768c2.05-16.09 18.508-16.624 17.72-29.261-.703-8.328-12.234-15.984-27.976-15.767-15.743-.217-27.274 7.439-27.977 15.767-.79 12.635 15.663 13.17 17.72 29.25a19.159 19.159 0 0 1 3.476-1.73 6.006 6.006 0 0 1-.169-1.072Zm24.809 26.145a19.204 19.204 0 0 1-1.848 3.54 4.256 4.256 0 0 1 .725.697c.11.129.258.303.508.582.547 6.169 3.851 16.29 9.843 23.998 2.086-1.533 5.514-1.869 8.83-2.193 4.067-.4 7.909-.778 9.352-3.198.95-1.593.754-3.935-.6-7.156 2.034 2.94 2.663 5.367 2.006 7.38-1.056 3.25-5.36 4.888-9.523 6.472-2.777 1.058-5.647 2.15-7.447 3.701-2.037 1.238-3.963 3.63-5.827 5.943-2.794 3.471-5.683 7.059-9.101 7.059h-.002c-2.113 0-4.229-1.348-6.467-4.121 2.317 1.869 4.197 2.81 5.826 2.808 3.301 0 4.998-3.886 6.797-8.002 1.334-3.052 2.713-6.209 4.826-7.787-5.492-8.011-14.095-14.283-19.77-16.687l-.419-.686a5.679 5.679 0 0 1-.47-.913 19.07 19.07 0 0 1-3.83.646c7.733 14.194-5.226 24.285 2.831 34.031 5.465 6.324 19.295 5.742 31.9-3.688 12.864-9.076 17.694-22.048 13.368-29.199-6.784-10.678-20.396-1.46-31.508-13.227Zm-38.106-6.463a36.97 36.97 0 0 0-.753-.171c-4.069-4.67-12.692-10.914-22.069-13.629-.787 2.466-3.363 4.753-5.855 6.965-3.055 2.713-5.942 5.276-5.686 8.083.168 1.848 1.703 3.626 4.692 5.436l-.045.09c-3.328-1.271-5.264-2.867-5.916-4.879-1.055-3.25 1.465-7.107 3.9-10.836 1.625-2.487 3.305-5.058 3.85-7.37.92-2.2 1.072-5.267 1.22-8.233.295-5.96.602-12.123 6.956-12.123a15.311 15.311 0 0 1 3.914.594c-.623.047-1.202.022-1.739.021-2.619 0-4.377.602-5.373 1.839-1.722 2.143-.908 5.843-.049 9.76.717 3.255 1.456 6.619.674 9.137a51.723 51.723 0 0 0 16.88 2.757 41.36 41.36 0 0 0 8.921-.876c.377.156.588.242.742.307a6.117 6.117 0 0 1 .968.493 19.41 19.41 0 0 1 2.742-2.8c-14.635-6.931-10.07-22.73-22.323-25.883-8.137-1.905-18.982 6.697-23.64 21.735-5.071 14.902-1.354 28.236 6.349 31.478 11.762 4.65 17.356-10.793 33.245-7.822a19.166 19.166 0 0 1-.565-3.93 4.4 4.4 0 0 1-1.04-.142Z" fill="#ea0029"/><path d="M174.003 262.516a5.3 5.3 0 0 0 .05-.473l.036-.427a45.651 45.651 0 0 1-5.057-13.345 45.145 45.145 0 0 1-5.084 13.362c.015.146.024.262.032.358a4.087 4.087 0 0 0 .062.507 16.28 16.28 0 0 1 4.898-.74h.148a16.548 16.548 0 0 1 4.915.758Zm-21.973 8.596c-.176-.088-.257-.121-.433-.193a19.024 19.024 0 0 1-.397-.168 46.31 46.31 0 0 1-14.241.694 45.132 45.132 0 0 1 11.125 8.958c.15.031.268.06.364.083a3.778 3.778 0 0 0 .487.094 16.268 16.268 0 0 1 .809-4.888l.044-.137a16.56 16.56 0 0 1 2.243-4.443Zm1.538 23.971c-.134.135-.194.207-.318.352-.076.087-.163.189-.283.325a45.653 45.653 0 0 1-3.752 13.77 45.082 45.082 0 0 1 11.97-7.821c.08-.144.146-.251.198-.337a4.045 4.045 0 0 0 .233-.42 16.287 16.287 0 0 1-4.399-2.28l-.12-.087a16.492 16.492 0 0 1-3.53-3.502Z" fill="#ea0029"/><path d="M180.86 298.452a16.564 16.564 0 0 1-4.419 2.273c.088.17.136.25.233.41.058.092.127.206.225.37a45.7 45.7 0 0 1 11.936 7.824 45.083 45.083 0 0 1-3.74-13.799 12.415 12.415 0 0 1-.27-.307 3.486 3.486 0 0 0-.316-.338 16.312 16.312 0 0 1-3.526 3.479Z" fill="#ef373e"/><path d="m189.448 280.475.424-.1a45.677 45.677 0 0 1 11.13-8.935 45.626 45.626 0 0 1-14.282-.706c-.138.063-.249.108-.34.147a4.005 4.005 0 0 0-.453.211 16.308 16.308 0 0 1 2.218 4.43l.046.142a16.501 16.501 0 0 1 .796 4.907c.187-.031.28-.053.46-.096Zm-4.104 2.211c.01-.219.034-.433.034-.654 0-.19-.023-.374-.029-.563a3.934 3.934 0 0 0 .071-6.13 3.725 3.725 0 0 0-1.91-.872 16.047 16.047 0 0 0-.644-1.101c.046-.122.098-.241.133-.37a3.955 3.955 0 0 0-2.792-4.848c-.072-.018-.145-.028-.216-.043a3.73 3.73 0 0 0-2.198.166 16.458 16.458 0 0 0-1.128-.663 3.974 3.974 0 0 0-1.019-2.045 3.922 3.922 0 0 0-1.848-1.122 3.99 3.99 0 0 0-1.028-.136 3.902 3.902 0 0 0-1.116.173 3.959 3.959 0 0 0-1.928 1.28c-.22-.008-.435-.033-.657-.033-.211 0-.416.024-.625.033a3.915 3.915 0 0 0-1.985-1.301c-.012-.003-.023-.01-.036-.013a3.983 3.983 0 0 0-4.848 2.793c-.031.116-.038.234-.059.35-.393.207-.773.433-1.146.67-.108-.04-.207-.091-.32-.122a3.97 3.97 0 0 0-4.797 2.653c-.015.049-.039.093-.051.141a3.925 3.925 0 0 0 .11 2.375c-.235.369-.46.742-.665 1.13a3.94 3.94 0 0 0-1.852 6.943c-.008.218-.033.434-.033.655 0 .226.025.444.033.667a3.943 3.943 0 0 0-1.296 2.007c-.005.02-.005.039-.01.058a3.928 3.928 0 0 0 .403 2.945 3.986 3.986 0 0 0 .607.779 3.911 3.911 0 0 0 1.796 1.066c.114.03.23.05.348.07.2.38.421.745.65 1.106a3.56 3.56 0 0 0-.126.349 4.01 4.01 0 0 0 2.793 4.848c.04.011.082.015.122.025a3.787 3.787 0 0 0 2.286-.145c.36.228.724.449 1.103.649a3.985 3.985 0 0 0 .963 2.005 3.921 3.921 0 0 0 5.99-.154c.215.01.427.033.645.033s.43-.024.645-.033a3.905 3.905 0 0 0 1.77 1.227c.089.03.17.074.262.099a3.925 3.925 0 0 0 4.02-1.254 3.941 3.941 0 0 0 .826-1.541c.034-.125.04-.25.062-.375.378-.2.743-.42 1.102-.647a4.224 4.224 0 0 0 .412.154 3.977 3.977 0 0 0 1.027.136 4.022 4.022 0 0 0 .556-.046 3.96 3.96 0 0 0 3.261-2.885 3.821 3.821 0 0 0 .078-.466 3.899 3.899 0 0 0-.228-2.002c.22-.35.435-.704.629-1.073a3.952 3.952 0 0 0 1.853-6.948Zm-2.452-6.772a2.46 2.46 0 0 1 .64.085 2.43 2.43 0 0 1 .827.406 2.457 2.457 0 0 1 .91 2.604 2.314 2.314 0 0 1-.13.34 2.486 2.486 0 0 1-2.884 1.396 2.458 2.458 0 0 1 .637-4.831Zm-6.085-4.582a2.46 2.46 0 0 1 2.371-1.82 2.54 2.54 0 0 1 .39.051c.084.014.168.012.25.033a2.464 2.464 0 0 1 1.731 3.011 2.49 2.49 0 0 1-3.006 1.736 2.462 2.462 0 0 1-1.736-3.011Zm-6.407-3.706a2.456 2.456 0 0 1 1.473-1.643 2.46 2.46 0 0 1 3.272 2.918 2.492 2.492 0 0 1-3.01 1.735 2.456 2.456 0 0 1-1.735-3.01Zm2.272 5.78a2.457 2.457 0 1 1-2.458 2.457 2.46 2.46 0 0 1 2.458-2.457Zm-9.648-5.78a2.493 2.493 0 0 1 2.37-1.819 2.463 2.463 0 0 1 .64.085 2.516 2.516 0 0 1 .239.09 2.433 2.433 0 0 1 1.493 2.921 2.49 2.49 0 0 1-3.009 1.735 2.455 2.455 0 0 1-1.733-3.011Zm4.947 8.237a2.456 2.456 0 1 1-2.455-2.457 2.459 2.459 0 0 1 2.455 2.457Zm-11.352-4.35c.011-.065.014-.13.032-.195a2.456 2.456 0 1 1 4.744 1.275 2.486 2.486 0 0 1-3.01 1.736 2.452 2.452 0 0 1-1.766-2.816Zm-3.679 6.183a2.47 2.47 0 0 1 2.367-1.82 2.458 2.458 0 1 1-.634 4.832 2.446 2.446 0 0 1-1.49-1.147 2.606 2.606 0 0 1-.243-1.865Zm1.743 10.41a2.457 2.457 0 0 1-1.735-3.011 2.146 2.146 0 0 1 .078-.218 2.452 2.452 0 0 1 4.666 1.493 2.49 2.49 0 0 1-3.009 1.735Zm6.677 4.638a2.485 2.485 0 0 1-2.773 1.773c-.079-.013-.159-.017-.238-.039a2.457 2.457 0 1 1 3.01-1.734Zm.586-8.254a2.457 2.457 0 1 1 2.457-2.457 2.459 2.459 0 0 1-2.457 2.457Zm5.795 11.963a2.474 2.474 0 0 1-1.475 1.63 2.392 2.392 0 0 1-2.828-.763 2.446 2.446 0 0 1 1.926-3.962 2.46 2.46 0 0 1 2.377 3.095Zm-2.225-5.79a2.457 2.457 0 1 1 2.455-2.456 2.459 2.459 0 0 1-2.455 2.457Zm3.555-6.173a2.457 2.457 0 1 1 2.455-2.457 2.459 2.459 0 0 1-2.455 2.457Zm3.601 1.26a2.457 2.457 0 1 1-2.458 2.457 2.46 2.46 0 0 1 2.458-2.457Zm2.471 10.698a2.395 2.395 0 0 1-.446.874 2.483 2.483 0 0 1-2.563.861 2.261 2.261 0 0 1-.267-.1 2.431 2.431 0 0 1-1.469-2.91 2.457 2.457 0 1 1 4.745 1.275Zm1.053-11.958a2.457 2.457 0 1 1 2.455-2.457 2.46 2.46 0 0 1-2.455 2.457Zm5.425 7.951a2.316 2.316 0 0 1-.058.345 2.489 2.489 0 0 1-2.081 1.794 2.366 2.366 0 0 1-.926-.059 2.465 2.465 0 1 1 3.065-2.08Zm3.586-6.072a2.428 2.428 0 0 1-.833 1.253 2.43 2.43 0 0 1-3.67-.663 2.458 2.458 0 0 1 2.126-3.685 2.447 2.447 0 0 1 2.288 1.575 2.432 2.432 0 0 1 .089 1.52Z" fill="#ea0029"/><path d="M167.715 301.166a19.114 19.114 0 0 1-3.745-.622 4.488 4.488 0 0 1-.458.954c-.088.144-.207.338-.396.664-5.7 2.426-14.303 8.697-19.781 16.777 2.101 1.51 3.48 4.666 4.814 7.719 1.797 4.115 3.496 8.004 6.797 8.004 1.629-.002 3.51-.944 5.754-2.88-2.166 2.843-4.281 4.19-6.395 4.19-3.418 0-6.308-3.59-9.103-7.058-1.864-2.313-3.79-4.705-5.82-5.938-1.807-1.556-4.676-2.648-7.452-3.705-4.164-1.586-8.468-3.224-9.525-6.474-.654-2.01-.027-4.44 1.918-7.426-1.266 3.267-1.461 5.61-.512 7.203 1.443 2.422 5.285 2.797 9.352 3.197 3.316.324 6.744.66 8.898 2.184 5.924-7.7 9.229-17.819 9.762-23.96.264-.309.412-.484.521-.61a5.475 5.475 0 0 1 .672-.683 19.247 19.247 0 0 1-1.893-3.614c-11.113 11.76-24.721 2.544-31.505 13.222-4.326 7.15.502 20.123 13.367 29.2 12.605 9.427 26.435 10.011 31.9 3.687 8.057-9.746-4.901-19.839 2.83-34.031Z" fill="#ea0029"/></svg>