<svg xmlns="http://www.w3.org/2000/svg" width="120" height="120" viewBox="0 0 120 120"><defs><style>.cls-1{fill:#191b21;}</style></defs><g id="Ikoner"><polygon class="cls-1" points="75.94 67.417 45.966 67.417 45.966 63.817 72.341 63.817 72.341 49.542 45.966 49.542 45.966 45.942 75.94 45.942 75.94 67.417"/><path class="cls-1" d="M75.7051,49.5419H44.4014l-8.4707-7.4726V23.9931H47.419l-.044,7.3525h6.6192l.0751-7.3525H66.0459l.042,7.3525h6.6738l-.0849-7.3525h11.499V42.0693Zm-29.9424-3.6H74.3438l6.2324-5.5166V27.5927H76.3193l.085,7.3525H62.5078l-.042-7.3525h-4.834l-.0751,7.3525H43.7539l.044-7.3525L39.53,27.622V40.4443Z"/><path class="cls-1" d="M90.5918,96.8544H29.836V86.0321l8.2031-9.3711h44.35l8.2031,9.3711Zm-57.1562-3.6H86.9922V87.3857l-6.2363-7.125H39.6719l-6.2363,7.125Z"/><polygon class="cls-1" points="83.345 80.261 36.762 80.261 36.762 72.234 44.337 64.857 44.337 53.276 47.937 53.276 47.937 66.377 40.361 73.754 40.361 76.661 79.745 76.661 79.745 73.754 72.715 66.906 75.227 64.328 83.345 72.234 83.345 80.261"/><rect class="cls-1" x="65.8516" y="84.9091" width="22.9404" height="3.5996"/></g></svg>